<svg width="60" height="60" viewBox="0 0 60 60" fill="none" xmlns="http://www.w3.org/2000/svg">
<path d="M47.0001 53.9999C48.6569 53.9999 50 55.343 50 56.9999C50 58.6567 48.6569 59.9999 47.0001 59.9999C45.3432 59.9999 44.0001 58.6567 44.0001 56.9999C44.0001 55.343 45.3432 53.9999 47.0001 53.9999Z" fill="#E9C46A"/>
<path fill-rule="evenodd" clip-rule="evenodd" d="M48.0001 56.9999C48.0001 56.4476 47.5523 55.9999 47.0001 55.9999C46.4478 55.9999 46.0001 56.4476 46.0001 56.9999C46.0001 57.5522 46.4478 57.9999 47.0001 57.9999C47.5523 57.9999 48.0001 57.5522 48.0001 56.9999ZM50 56.9999C50 55.343 48.6569 53.9999 47.0001 53.9999C45.3432 53.9999 44.0001 55.343 44.0001 56.9999C44.0001 58.6567 45.3432 59.9999 47.0001 59.9999C48.6569 59.9999 50 58.6567 50 56.9999Z" fill="#E9C46A"/>
<path d="M47.0001 36C48.6569 36 50 37.3431 50 38.9999C50 40.6568 48.6569 41.9999 47.0001 41.9999C45.3432 41.9999 44.0001 40.6568 44.0001 38.9999C44.0001 37.3431 45.3432 36 47.0001 36Z" fill="#E9C46A"/>
<path fill-rule="evenodd" clip-rule="evenodd" d="M48.0001 38.9999C48.0001 38.4477 47.5523 37.9999 47.0001 37.9999C46.4478 37.9999 46.0001 38.4477 46.0001 38.9999C46.0001 39.5522 46.4478 39.9999 47.0001 39.9999C47.5523 39.9999 48.0001 39.5522 48.0001 38.9999ZM50 38.9999C50 37.3431 48.6569 36 47.0001 36C45.3432 36 44.0001 37.3431 44.0001 38.9999C44.0001 40.6568 45.3432 41.9999 47.0001 41.9999C48.6569 41.9999 50 40.6568 50 38.9999Z" fill="#E9C46A"/>
<path fill-rule="evenodd" clip-rule="evenodd" d="M44 57L44 39L50 39L50 57L44 57Z" fill="#E9C46A"/>
<path d="M47 40C47 49.3888 39.3888 57 30 57C20.6112 57 13 49.3888 13 40C13 30.6112 20.6112 23 30 23C39.3888 23 47 30.6112 47 40Z" fill="white"/>
<path fill-rule="evenodd" clip-rule="evenodd" d="M30 53.9997C37.7319 53.9997 43.9999 47.7317 43.9999 39.9997C43.9999 32.2677 37.7319 25.9997 30 25.9997C22.268 25.9997 16 32.2677 16 39.9997C16 47.7317 22.268 53.9997 30 53.9997ZM30 59.9997C41.0456 59.9997 49.9999 51.0454 49.9999 39.9997C49.9999 28.954 41.0456 19.9998 30 19.9998C18.9543 19.9998 10 28.954 10 39.9997C10 51.0454 18.9543 59.9997 30 59.9997Z" fill="#2A9D8F"/>
<path d="M13 36C14.6568 36 16 37.3431 16 38.9999C16 40.6568 14.6568 41.9999 13 41.9999C11.3431 41.9999 10 40.6568 10 38.9999C10 37.3431 11.3431 36 13 36Z" fill="#2A9D8F"/>
<path fill-rule="evenodd" clip-rule="evenodd" d="M14 38.9999C14 38.4477 13.5523 37.9999 13 37.9999C12.4477 37.9999 12 38.4477 12 38.9999C12 39.5522 12.4477 39.9999 13 39.9999C13.5523 39.9999 14 39.5522 14 38.9999ZM16 38.9999C16 37.3431 14.6568 36 13 36C11.3431 36 10 37.3431 10 38.9999C10 40.6568 11.3431 41.9999 13 41.9999C14.6568 41.9999 16 40.6568 16 38.9999Z" fill="#2A9D8F"/>
<path d="M13 -1.67012e-05C14.6568 -1.67736e-05 16 1.34313 16 2.99998C16 4.65683 14.6568 5.99997 13 5.99997C11.3431 5.99997 9.99997 4.65683 9.99997 2.99998C9.99997 1.34313 11.3431 -1.66288e-05 13 -1.67012e-05Z" fill="#2A9D8F"/>
<path fill-rule="evenodd" clip-rule="evenodd" d="M14 2.99998C14 2.44769 13.5522 1.99998 13 1.99998C12.4477 1.99998 12 2.44769 12 2.99998C12 3.55226 12.4477 3.99997 13 3.99997C13.5522 3.99997 14 3.55226 14 2.99998ZM16 2.99998C16 1.34313 14.6568 -1.67736e-05 13 -1.67012e-05C11.3431 -1.66288e-05 9.99997 1.34313 9.99997 2.99998C9.99997 4.65683 11.3431 5.99997 13 5.99997C14.6568 5.99997 16 4.65683 16 2.99998Z" fill="#2A9D8F"/>
<path fill-rule="evenodd" clip-rule="evenodd" d="M10 39L10 3L16 3L16 39L10 39Z" fill="#2A9D8F"/>
<path d="M31.0001 36C32.6569 36 34 37.3431 34 38.9999C34 40.6568 32.6569 41.9999 31.0001 41.9999C29.3432 41.9999 28.0001 40.6568 28.0001 38.9999C28.0001 37.3431 29.3432 36 31.0001 36Z" fill="#E76F51"/>
<path fill-rule="evenodd" clip-rule="evenodd" d="M32.0001 38.9999C32.0001 38.4477 31.5523 37.9999 31.0001 37.9999C30.4478 37.9999 30.0001 38.4477 30.0001 38.9999C30.0001 39.5522 30.4478 39.9999 31.0001 39.9999C31.5523 39.9999 32.0001 39.5522 32.0001 38.9999ZM34 38.9999C34 37.3431 32.6569 36 31.0001 36C29.3432 36 28.0001 37.3431 28.0001 38.9999C28.0001 40.6568 29.3432 41.9999 31.0001 41.9999C32.6569 41.9999 34 40.6568 34 38.9999Z" fill="#E76F51"/>
<path d="M31.0001 -1.67012e-05C32.6569 -1.67736e-05 34 1.34313 34 2.99998C34 4.65683 32.6569 5.99997 31.0001 5.99997C29.3432 5.99997 28.0001 4.65683 28.0001 2.99998C28.0001 1.34313 29.3432 -1.66288e-05 31.0001 -1.67012e-05Z" fill="#E76F51"/>
<path fill-rule="evenodd" clip-rule="evenodd" d="M32.0001 2.99998C32.0001 2.44769 31.5523 1.99998 31.0001 1.99998C30.4478 1.99998 30.0001 2.44769 30.0001 2.99998C30.0001 3.55226 30.4478 3.99997 31.0001 3.99997C31.5523 3.99997 32.0001 3.55226 32.0001 2.99998ZM34 2.99998C34 1.34313 32.6569 -1.67736e-05 31.0001 -1.67012e-05C29.3432 -1.66288e-05 28.0001 1.34313 28.0001 2.99998C28.0001 4.65683 29.3432 5.99997 31.0001 5.99997C32.6569 5.99997 34 4.65683 34 2.99998Z" fill="#E76F51"/>
<path fill-rule="evenodd" clip-rule="evenodd" d="M28 39L28 3L34 3L34 39L28 39Z" fill="#E76F51"/>
</svg>
