<svg width="180" height="180" viewBox="0 0 180 180" fill="none" xmlns="http://www.w3.org/2000/svg">
<path d="M141 162C145.971 162 150 166.029 150 171C150 175.97 145.971 180 141 180C136.03 180 132 175.97 132 171C132 166.029 136.03 162 141 162Z" fill="black"/>
<path fill-rule="evenodd" clip-rule="evenodd" d="M144 171C144 169.343 142.657 168 141 168C139.343 168 138 169.343 138 171C138 172.657 139.343 174 141 174C142.657 174 144 172.657 144 171ZM150 171C150 166.029 145.971 162 141 162C136.03 162 132 166.029 132 171C132 175.97 136.03 180 141 180C145.971 180 150 175.97 150 171Z" fill="black"/>
<path d="M141 108C145.971 108 150 112.029 150 117C150 121.97 145.971 126 141 126C136.03 126 132 121.97 132 117C132 112.029 136.03 108 141 108Z" fill="black"/>
<path fill-rule="evenodd" clip-rule="evenodd" d="M144 117C144 115.343 142.657 114 141 114C139.343 114 138 115.343 138 117C138 118.657 139.343 120 141 120C142.657 120 144 118.657 144 117ZM150 117C150 112.029 145.971 108 141 108C136.03 108 132 112.029 132 117C132 121.97 136.03 126 141 126C145.971 126 150 121.97 150 117Z" fill="black"/>
<path fill-rule="evenodd" clip-rule="evenodd" d="M132 171L132 117L150 117L150 171L132 171Z" fill="black"/>
<path fill-rule="evenodd" clip-rule="evenodd" d="M89.9999 161.999C113.196 161.999 132 143.195 132 119.999C132 96.8032 113.196 77.9992 89.9999 77.9992C66.804 77.9992 48 96.8032 48 119.999C48 143.195 66.804 161.999 89.9999 161.999ZM89.9999 179.999C123.137 179.999 150 153.136 150 119.999C150 86.8621 123.137 59.9993 89.9999 59.9993C56.8629 59.9993 30 86.8621 30 119.999C30 153.136 56.8629 179.999 89.9999 179.999Z" fill="black"/>
<path d="M39 108C43.9705 108 48 112.029 48 117C48 121.97 43.9705 126 39 126C34.0294 126 30 121.97 30 117C30 112.029 34.0294 108 39 108Z" fill="black"/>
<path fill-rule="evenodd" clip-rule="evenodd" d="M42 117C42 115.343 40.6568 114 39 114C37.3431 114 36 115.343 36 117C36 118.657 37.3431 120 39 120C40.6568 120 42 118.657 42 117ZM48 117C48 112.029 43.9705 108 39 108C34.0294 108 30 112.029 30 117C30 121.97 34.0294 126 39 126C43.9705 126 48 121.97 48 117Z" fill="black"/>
<path d="M38.9999 -6.57201e-05C43.9705 -6.59374e-05 47.9999 4.02936 47.9999 8.99991C47.9999 13.9705 43.9705 17.9999 38.9999 17.9999C34.0294 17.9999 30 13.9705 30 8.99991C30 4.02936 34.0294 -6.55028e-05 38.9999 -6.57201e-05Z" fill="black"/>
<path fill-rule="evenodd" clip-rule="evenodd" d="M41.9999 8.99991C41.9999 7.34306 40.6568 5.99992 38.9999 5.99992C37.3431 5.99992 36 7.34306 36 8.99991C36 10.6568 37.3431 11.9999 38.9999 11.9999C40.6568 11.9999 41.9999 10.6568 41.9999 8.99991ZM47.9999 8.99991C47.9999 4.02936 43.9705 -6.59374e-05 38.9999 -6.57201e-05C34.0294 -6.55028e-05 30 4.02936 30 8.99991C30 13.9705 34.0294 17.9999 38.9999 17.9999C43.9705 17.9999 47.9999 13.9705 47.9999 8.99991Z" fill="black"/>
<path fill-rule="evenodd" clip-rule="evenodd" d="M30 117L30 9.00004L48 9.00005L48 117L30 117Z" fill="black"/>
<path d="M93 108C97.9706 108 102 112.029 102 117C102 121.97 97.9706 126 93 126C88.0295 126 84.0001 121.97 84.0001 117C84.0001 112.029 88.0295 108 93 108Z" fill="black"/>
<path fill-rule="evenodd" clip-rule="evenodd" d="M96 117C96 115.343 94.6569 114 93 114C91.3432 114 90 115.343 90 117C90 118.657 91.3432 120 93 120C94.6569 120 96 118.657 96 117ZM102 117C102 112.029 97.9706 108 93 108C88.0295 108 84.0001 112.029 84.0001 117C84.0001 121.97 88.0295 126 93 126C97.9706 126 102 121.97 102 117Z" fill="black"/>
<path d="M93.0002 -6.57201e-05C97.9707 -6.59374e-05 102 4.02936 102 8.99991C102 13.9705 97.9707 17.9999 93.0002 17.9999C88.0296 17.9999 84.0002 13.9705 84.0002 8.99991C84.0002 4.02936 88.0296 -6.55028e-05 93.0002 -6.57201e-05Z" fill="black"/>
<path fill-rule="evenodd" clip-rule="evenodd" d="M96.0002 8.99991C96.0002 7.34306 94.657 5.99992 93.0002 5.99992C91.3433 5.99992 90.0002 7.34306 90.0002 8.99991C90.0002 10.6568 91.3433 11.9999 93.0002 11.9999C94.657 11.9999 96.0002 10.6568 96.0002 8.99991ZM102 8.99991C102 4.02936 97.9707 -6.59374e-05 93.0002 -6.57201e-05C88.0296 -6.55028e-05 84.0002 4.02936 84.0002 8.99991C84.0002 13.9705 88.0296 17.9999 93.0002 17.9999C97.9707 17.9999 102 13.9705 102 8.99991Z" fill="black"/>
<path fill-rule="evenodd" clip-rule="evenodd" d="M84 117L84 9.00004L102 9.00005L102 117L84 117Z" fill="black"/>
</svg>
